<svg xmlns="http://www.w3.org/2000/svg" width="24" height="24" viewBox="0 0 24 24">
    <g data-name="Group 32649">
        <path data-name="Path 24386" d="M11.25 24h1.5c.06-.013.12-.028.181-.039a18.048 18.048 0 0 0 2.252-.4 11.808 11.808 0 0 0 8.633-9.495c.09-.434.124-.878.185-1.318v-1.5a1.327 1.327 0 0 1-.039-.181 11.117 11.117 0 0 0-1.34-4.643A11.756 11.756 0 0 0 12.245.009a11.266 11.266 0 0 0-6.84 1.968A11.8 11.8 0 0 0 .187 9.906C.1 10.35.061 10.8 0 11.248v1.5c.014.068.03.135.04.2.081.548.134 1.1.246 1.642a12 12 0 0 0 9.623 9.221c.445.073.894.124 1.341.186m.742-1.68A10.322 10.322 0 1 1 22.321 12a10.325 10.325 0 0 1-10.329 10.32" style="fill:#d40707"/>
        <path data-name="Path 24387" d="M174.934 163.455c0-.965-.009-1.93.005-2.894a.716.716 0 0 0-.4-.695 1.693 1.693 0 0 0-1.66-.029.742.742 0 0 0-.432.727q.015 2.906 0 5.812a.716.716 0 0 0 .481.738 1.949 1.949 0 0 0 1.57-.028.686.686 0 0 0 .441-.69c-.012-.98 0-1.961 0-2.942" transform="translate(-161.687 -153.204)" style="fill:#d40707"/>
        <path data-name="Path 24388" d="M172.637 100.484a1.349 1.349 0 0 0-1.056.457 1.012 1.012 0 0 0 .017 1.4 1.424 1.424 0 0 0 2.006.028.973.973 0 0 0 .253-1.068 1.23 1.23 0 0 0-1.032-.8 1.7 1.7 0 0 0-.187-.014" transform="translate(-160.622 -85.051)" style="fill:#d40707"/>
    </g>
</svg>
