<svg width="116" height="21" viewBox="0 0 116 21" fill="none" xmlns="http://www.w3.org/2000/svg">
<g id="BASFw_x5F_wh100lg_x5F_4c">
<g id="Group">
<g id="Group_2">
<path id="Vector" d="M0 0.59375V20.4322H20.7774V0.59375H0ZM14.3827 14.3265H6.38928V6.69949H14.3827V14.3265Z" fill="#753FEA"/>
<path id="Vector_2" d="M35.1657 6.69971H27.1722V14.3319H35.1657V6.69971Z" fill="#753FEA"/>
</g>
<path id="Vector_3" d="M41.5548 0.59375C41.5548 0.59375 51.196 0.59375 53.133 0.59375C57.3834 0.59375 59.3258 3.29757 59.3258 5.77217C59.3258 7.55388 58.6111 8.70522 56.685 9.7732C59.113 10.6276 60.4335 12.1749 60.4335 14.5557C60.4335 17.4054 58.2673 20.4322 53.1548 20.4322C50.323 20.4322 41.5603 20.4322 41.5603 20.4322L41.5548 0.59375ZM47.8786 15.9519C47.8786 15.9519 50.574 15.9519 52.069 15.9519C53.564 15.9519 54.2351 14.9308 54.2351 14.0347C54.2351 14.4515 54.4261 12.3937 52.2818 12.3937C51.1578 12.3937 47.8786 12.3937 47.8786 12.3937V15.9519ZM47.895 8.40306C47.895 8.40306 49.8429 8.40306 51.2615 8.40306C52.8002 8.40306 53.4113 7.72059 53.4113 6.71512C53.4113 6.48069 53.3349 5.18869 51.698 5.18869C52.4455 5.18869 47.8895 5.18869 47.8895 5.18869V8.40306H47.895Z" fill="#753FEA"/>
<path id="Vector_4" d="M67.0138 0.59375H73.7086L81.331 20.4062H74.4616L73.4576 17.4366H67.0465L66.1953 20.3905H59.375L67.0138 0.59375ZM70.0856 6.47548L68.3178 13.0918H72.0935L70.0856 6.47548Z" fill="#753FEA"/>
<path id="Vector_5" d="M92.0088 6.48605H98.3926C98.3926 3.1206 95.7409 0 89.4498 0C82.5477 0 80.4143 3.63636 80.4143 6.2985C80.4143 10.5913 85.9142 11.7322 86.0833 11.7791C86.9072 12.0239 90.3174 12.8992 91.174 13.1909C91.9106 13.441 92.6199 14.0088 92.6199 14.7642C92.6199 15.9208 91.174 16.4782 89.9736 16.4782C89.2043 16.4782 86.6071 16.2334 86.6071 13.6077H80.0105C80.0105 17.0982 82.5258 21.0002 89.5753 21.0002C97.3614 21.0002 98.9874 16.5668 98.9874 14.212C98.9874 12.2896 97.847 10.1537 95.2116 9.13777C93.6293 8.52824 90.9994 7.99164 89.6844 7.62176C89.0188 7.43421 86.8035 7.00702 86.8035 5.71502C86.8035 4.06355 89.6572 4.27714 89.2425 4.27714C90.5247 4.27714 92.0088 4.97003 92.0088 6.48605Z" fill="#753FEA"/>
<path id="Vector_6" d="M100.068 0.588623H116V5.82435H106.43V9.31483H114.963V14.3213H106.402V20.4271H100.035L100.068 0.588623Z" fill="#753FEA"/>
</g>
</g>
</svg>
