<svg width="349" height="140" viewBox="0 0 349 140" fill="none" xmlns="http://www.w3.org/2000/svg">
<path d="M63.8752 3.63525C67.6509 1.39425 72.3491 1.39425 76.1248 3.63525L100.1 17.8653L124.411 31.5134C128.24 33.6628 130.589 37.7315 130.536 42.1219L130.2 70L130.536 97.8782C130.589 102.269 128.24 106.337 124.411 108.487L100.1 122.135L76.1248 136.365C72.3491 138.606 67.6509 138.606 63.8752 136.365L39.9 122.135L15.5888 108.487C11.7602 106.337 9.41114 102.269 9.46405 97.8782L9.8 70L9.46405 42.1218C9.41114 37.7315 11.7602 33.6628 15.5888 31.5134L39.9 17.8653L63.8752 3.63525Z" fill="#123981"/>
<path d="M72.6526 34.0274L100.093 50.4919C101.105 51.0988 101.724 52.1919 101.724 53.3715V85.8886C101.724 87.1008 101.071 88.219 100.015 88.8142L72.6265 104.251C71.5829 104.839 70.3048 104.827 69.2727 104.219L41.2503 87.7056C40.2258 87.1019 39.597 86.0015 39.597 84.8124V53.3891C39.597 52.2 40.2258 51.0996 41.2503 50.4959L69.2199 34.0138C70.2802 33.389 71.5973 33.3942 72.6526 34.0274Z" stroke="white" stroke-width="5.59701"/>
<path d="M98.3465 53.8746L72.6002 68.9673C71.572 69.57 70.9403 70.6726 70.9403 71.8644V102.231C70.9403 104.806 73.7181 106.423 75.9569 105.151L101.703 90.5302C102.754 89.9335 103.403 88.8183 103.403 87.61V56.7717C103.403 54.1767 100.585 52.5623 98.3465 53.8746Z" fill="white"/>
<path d="M174.768 97.5H155.832V44.868H174.264C189.816 44.868 200.544 55.596 200.544 71.292C200.544 86.772 190.032 97.5 174.768 97.5ZM173.4 53.364H165.048V89.004H173.904C184.416 89.004 190.824 82.236 190.824 71.292C190.824 60.132 184.272 53.364 173.4 53.364ZM204.305 79.644C204.305 68.556 212.297 60.924 223.313 60.924C234.329 60.924 242.321 68.556 242.321 79.644C242.321 90.732 234.329 98.364 223.313 98.364C212.297 98.364 204.305 90.732 204.305 79.644ZM213.089 79.644C213.089 86.124 217.265 90.516 223.313 90.516C229.361 90.516 233.537 86.124 233.537 79.644C233.537 73.164 229.361 68.772 223.313 68.772C217.265 68.772 213.089 73.164 213.089 79.644ZM245.756 79.644C245.756 68.628 253.028 60.852 263.54 60.852C273.26 60.852 279.884 66.252 280.82 74.82H272.036C271.028 70.788 268.076 68.7 263.9 68.7C258.284 68.7 254.54 72.948 254.54 79.644C254.54 86.34 257.996 90.516 263.612 90.516C268.004 90.516 271.1 88.356 272.036 84.468H280.892C279.812 92.748 272.9 98.436 263.612 98.436C252.812 98.436 245.756 90.948 245.756 79.644ZM290.485 97.5H280.909L299.917 44.868H309.349L328.357 97.5H318.637L314.389 85.332H294.733L290.485 97.5ZM303.445 60.564L297.469 77.556H311.725L305.677 60.564C305.245 59.196 304.741 57.612 304.597 56.532C304.381 57.54 303.949 59.124 303.445 60.564ZM342.733 44.868V97.5H333.517V44.868H342.733Z" fill="#1A1A1A"/>
</svg>
