<svg width="499" height="140" viewBox="0 0 499 140" fill="none" xmlns="http://www.w3.org/2000/svg">
<path d="M63.8752 3.63525C67.6509 1.39425 72.3491 1.39425 76.1248 3.63525L100.1 17.8653L124.411 31.5134C128.24 33.6628 130.589 37.7315 130.536 42.1219L130.2 70L130.536 97.8782C130.589 102.269 128.24 106.337 124.411 108.487L100.1 122.135L76.1248 136.365C72.3491 138.606 67.6509 138.606 63.8752 136.365L39.9 122.135L15.5888 108.487C11.7602 106.337 9.41114 102.269 9.46405 97.8782L9.8 70L9.46405 42.1218C9.41114 37.7315 11.7602 33.6628 15.5888 31.5134L39.9 17.8653L63.8752 3.63525Z" fill="#123981"/>
<path d="M72.6526 34.0274L100.093 50.4919C101.105 51.0988 101.724 52.1919 101.724 53.3715V85.8886C101.724 87.1008 101.071 88.219 100.015 88.8142L72.6265 104.251C71.5829 104.839 70.3048 104.827 69.2727 104.219L41.2503 87.7056C40.2258 87.1019 39.597 86.0015 39.597 84.8124V53.3891C39.597 52.2 40.2258 51.0996 41.2503 50.4959L69.2199 34.0138C70.2802 33.389 71.5973 33.3942 72.6526 34.0274Z" stroke="white" stroke-width="5.59701"/>
<path d="M98.3465 53.8746L72.6002 68.9673C71.572 69.57 70.9403 70.6726 70.9403 71.8644V102.231C70.9403 104.806 73.7181 106.423 75.9569 105.151L101.703 90.5302C102.754 89.9335 103.403 88.8183 103.403 87.61V56.7717C103.403 54.1767 100.585 52.5623 98.3465 53.8746Z" fill="white"/>
<path d="M165.048 44.868V97.5H155.832V44.868H165.048ZM182.763 97.5H173.979V61.932H182.115L182.835 66.54C185.067 62.94 189.387 60.852 194.211 60.852C203.139 60.852 207.747 66.396 207.747 75.612V97.5H198.963V77.7C198.963 71.724 196.011 68.844 191.475 68.844C186.075 68.844 182.763 72.588 182.763 78.348V97.5ZM211.779 86.7H220.131C220.203 89.796 222.507 91.74 226.539 91.74C230.643 91.74 232.875 90.084 232.875 87.492C232.875 85.692 231.939 84.396 228.771 83.676L222.363 82.164C215.955 80.724 212.859 77.7 212.859 72.012C212.859 65.028 218.763 60.852 226.971 60.852C234.963 60.852 240.363 65.46 240.435 72.372H232.083C232.011 69.348 229.995 67.404 226.611 67.404C223.155 67.404 221.139 68.988 221.139 71.652C221.139 73.668 222.723 74.964 225.747 75.684L232.155 77.196C238.131 78.564 241.155 81.3 241.155 86.772C241.155 93.972 235.035 98.436 226.251 98.436C217.395 98.436 211.779 93.684 211.779 86.7ZM250.796 54.804C247.772 54.804 245.396 52.428 245.396 49.476C245.396 46.524 247.772 44.22 250.796 44.22C253.676 44.22 256.052 46.524 256.052 49.476C256.052 52.428 253.676 54.804 250.796 54.804ZM246.404 97.5V61.932H255.188V97.5H246.404ZM260.807 78.924C260.807 68.556 267.575 60.78 277.727 60.78C283.055 60.78 287.231 63.012 289.319 66.828L289.823 61.932H297.959V95.7C297.959 107.58 290.831 114.996 279.311 114.996C269.087 114.996 262.103 109.164 261.023 99.66H269.807C270.383 104.268 273.911 107.004 279.311 107.004C285.359 107.004 289.247 103.188 289.247 97.284V91.38C287.015 94.692 282.623 96.78 277.511 96.78C267.431 96.78 260.807 89.22 260.807 78.924ZM269.663 78.708C269.663 84.684 273.479 89.148 279.239 89.148C285.287 89.148 289.031 84.9 289.031 78.708C289.031 72.66 285.359 68.484 279.239 68.484C273.407 68.484 269.663 72.876 269.663 78.708ZM314.393 97.5H305.609V43.932H314.465V66.54C316.697 63.084 320.873 60.852 325.985 60.852C334.769 60.852 339.377 66.396 339.377 75.612V97.5H330.593V77.7C330.593 71.724 327.641 68.844 323.177 68.844C317.633 68.844 314.393 72.732 314.393 78.06V97.5ZM358.664 97.5H349.88V69.276H343.04V61.932H349.88V50.844H358.664V61.932H365.576V69.276H358.664V97.5ZM383.709 71.436H377.301V65.46L390.837 53.004H368.949V44.868H402.357V52.212L389.541 64.02C397.605 65.604 403.869 71.508 403.869 80.796C403.869 91.596 395.445 98.436 384.789 98.436C374.493 98.436 366.501 92.1 366.501 80.724H375.573C375.573 86.772 379.317 90.228 384.933 90.228C390.693 90.228 394.509 86.484 394.509 80.652C394.509 75.324 391.053 71.436 383.709 71.436ZM415.197 60.348L426.573 44.868H437.085L424.485 61.644C425.781 61.284 427.149 61.068 428.445 61.068C439.317 61.068 446.661 68.7 446.661 79.356C446.661 90.588 438.309 98.436 427.077 98.436C415.701 98.436 407.205 90.084 407.205 79.284C407.205 72.948 409.293 68.34 415.197 60.348ZM416.637 79.356C416.637 85.764 420.885 90.228 427.077 90.228C433.053 90.228 437.373 85.764 437.373 79.356C437.373 73.02 433.125 68.628 427.077 68.628C420.813 68.628 416.637 73.02 416.637 79.356ZM450.917 71.292C450.917 54.948 459.701 43.86 473.165 43.86C486.629 43.86 495.485 54.948 495.485 71.292C495.485 87.564 487.133 98.436 473.165 98.436C459.197 98.436 450.917 87.564 450.917 71.292ZM459.989 71.292C459.989 83.46 464.885 90.3 473.165 90.3C481.517 90.3 486.413 83.46 486.413 71.292C486.413 58.836 481.517 51.996 473.165 51.996C464.885 51.996 459.989 58.836 459.989 71.292Z" fill="#1A1A1A"/>
</svg>
