<svg xmlns="http://www.w3.org/2000/svg" width="24" height="24" viewBox="0 0 24 24">
    <g data-name="Group 63856" transform="translate(-1351 -104)">
        <rect data-name="Rectangle 23548" width="24" height="24" rx="12" transform="translate(1351 104)" style="fill:#08922c"/>
        <path data-name="Path 29556" d="M9.695.224a.947.947 0 0 0-1.276.047L3.647 5.006 1.55 2.926A1 1 0 0 0 .9 2.7a.948.948 0 0 0-.633.273l-.019.019A.884.884 0 0 0 0 3.6a.9.9 0 0 0 .265.64l2.721 2.696a.963.963 0 0 0 .661.264.931.931 0 0 0 .661-.273l5.434-5.394h.009L9.77 1.5A.874.874 0 0 0 10 .855a.859.859 0 0 0-.3-.631m-.052 1.214-.1-.1.1.094z" transform="translate(1358 112.4)" style="fill:#fff"/>
    </g>
</svg>
