<svg xmlns="http://www.w3.org/2000/svg" width="24" height="22.549" viewBox="0 0 24 22.549">
    <path data-name="Path 29552" d="M19.547 25.018H5.589a5.014 5.014 0 0 1-4.379-7.455L8.189 5.041a4.953 4.953 0 0 1 4.379-2.572 4.954 4.954 0 0 1 4.379 2.572l6.979 12.522a5.013 5.013 0 0 1-4.379 7.455zm-6.978-20.64a3.067 3.067 0 0 0-2.713 1.593L2.877 18.492a3.105 3.105 0 0 0 2.712 4.617h13.959a3.1 3.1 0 0 0 2.712-4.616L15.28 5.971a3.067 3.067 0 0 0-2.711-1.593z" transform="translate(-.568 -2.469)" style="fill:#ffac00"/>
    <g data-name="Group 63843" transform="translate(10.977 5.479)">
        <path data-name="Path 29553" d="M30.454 25.937a.954.954 0 0 0 .954-.954v-7.208a.954.954 0 0 0-1.909 0v7.207a.954.954 0 0 0 .955.955z" transform="translate(-29.432 -16.821)" style="fill:#ffac00"/>
        <circle data-name="Ellipse 1966" cx="1.023" cy="1.023" r="1.023" transform="translate(0 10.308)" style="fill:#ffac00"/>
    </g>
</svg>
